<svg id="visual" viewBox="0 0 960 540" width="960" height="540" xmlns="http://www.w3.org/2000/svg" xmlns:xlink="http://www.w3.org/1999/xlink" version="1.1"><rect x="0" y="0" width="960" height="540" fill="#ebfeff"></rect><g fill="none" stroke="#ffffff" stroke-width="2"><circle r="32" cx="618" cy="71"></circle><circle r="1" cx="409" cy="462"></circle><circle r="0" cx="173" cy="395"></circle><circle r="6" cx="768" cy="525"></circle><circle r="6" cx="827" cy="311"></circle><circle r="9" cx="724" cy="176"></circle><circle r="20" cx="584" cy="220"></circle><circle r="29" cx="920" cy="455"></circle><circle r="15" cx="171" cy="218"></circle><circle r="11" cx="800" cy="119"></circle><circle r="30" cx="669" cy="1"></circle><circle r="0" cx="85" cy="89"></circle><circle r="6" cx="743" cy="434"></circle><circle r="21" cx="819" cy="471"></circle><circle r="12" cx="4" cy="167"></circle><circle r="16" cx="72" cy="348"></circle><circle r="17" cx="591" cy="325"></circle><circle r="22" cx="203" cy="130"></circle><circle r="15" cx="660" cy="524"></circle><circle r="8" cx="454" cy="154"></circle><circle r="14" cx="276" cy="317"></circle><circle r="28" cx="388" cy="260"></circle><circle r="6" cx="178" cy="497"></circle><circle r="22" cx="821" cy="200"></circle><circle r="5" cx="172" cy="63"></circle><circle r="24" cx="881" cy="33"></circle><circle r="7" cx="95" cy="219"></circle><circle r="11" cx="488" cy="274"></circle><circle r="13" cx="752" cy="257"></circle><circle r="25" cx="352" cy="125"></circle><circle r="23" cx="506" cy="364"></circle><circle r="23" cx="492" cy="69"></circle><circle r="22" cx="740" cy="57"></circle><circle r="19" cx="292" cy="384"></circle><circle r="26" cx="250" cy="60"></circle><circle r="5" cx="385" cy="392"></circle><circle r="29" cx="54" cy="6"></circle><circle r="24" cx="410" cy="27"></circle><circle r="15" cx="664" cy="377"></circle><circle r="16" cx="280" cy="160"></circle><circle r="18" cx="531" cy="11"></circle><circle r="25" cx="303" cy="484"></circle><circle r="18" cx="953" cy="376"></circle><circle r="9" cx="949" cy="274"></circle><circle r="7" cx="7" cy="329"></circle><circle r="22" cx="656" cy="282"></circle><circle r="21" cx="815" cy="49"></circle><circle r="26" cx="116" cy="455"></circle><circle r="1" cx="684" cy="105"></circle><circle r="5" cx="307" cy="2"></circle><circle r="12" cx="746" cy="343"></circle><circle r="9" cx="651" cy="451"></circle><circle r="30" cx="487" cy="524"></circle><circle r="28" cx="239" cy="219"></circle><circle r="28" cx="841" cy="398"></circle><circle r="8" cx="584" cy="503"></circle><circle r="21" cx="10" cy="451"></circle><circle r="2" cx="24" cy="519"></circle><circle r="25" cx="110" cy="537"></circle><circle r="1" cx="507" cy="439"></circle><circle r="2" cx="415" cy="331"></circle><circle r="28" cx="908" cy="198"></circle><circle r="18" cx="2" cy="54"></circle><circle r="20" cx="148" cy="287"></circle><circle r="4" cx="345" cy="317"></circle><circle r="18" cx="382" cy="529"></circle><circle r="16" cx="907" cy="112"></circle><circle r="11" cx="563" cy="116"></circle><circle r="8" cx="877" cy="259"></circle><circle r="9" cx="908" cy="535"></circle><circle r="5" cx="137" cy="156"></circle><circle r="13" cx="528" cy="179"></circle><circle r="22" cx="574" cy="416"></circle><circle r="16" cx="355" cy="193"></circle><circle r="22" cx="653" cy="200"></circle><circle r="16" cx="245" cy="434"></circle><circle r="20" cx="1" cy="247"></circle><circle r="19" cx="950" cy="37"></circle><circle r="15" cx="122" cy="9"></circle><circle r="24" cx="200" cy="331"></circle><circle r="25" cx="309" cy="254"></circle><circle r="29" cx="898" cy="325"></circle><circle r="18" cx="249" cy="536"></circle><circle r="25" cx="64" cy="279"></circle></g></svg>